<svg width="192" height="192" xmlns="http://www.w3.org/2000/svg">
 <g>
  <title>background</title>
  <rect x="-1" y="-1" width="194" height="194" id="canvas_background" fill="none"/>
 </g>

 <g>
  <title>Layer 1</title>
  <g stroke="null" id="icon">
   <path stroke="#312f2f" d="m38.352709,124.397024l0,-15.694208c0,-3.912163 3.285761,-7.084033 7.340288,-7.084033l99.21063,0c4.054527,0 7.340288,3.17187 7.340288,7.084033l0,15.694208" fill="none" stroke-width="10" stroke-miterlimit="1" stroke-linejoin="round" id="svg_1"/>
   <rect stroke="#312f2f" stroke-width="5" x="89.603752" y="77.989454" width="11.389121" height="43.428824" fill="#312f2f" id="svg_2"/>
   <path stroke="#884D58" d="m55.43639,135.31714zm62.64016,36.44519l0,-36.44519c0,-2.517 -2.03865,-4.55565 -4.55564,-4.55565l-36.44519,0c-2.517,0 -4.55565,2.03865 -4.55565,4.55565l0,36.44519c0,2.51699 2.03865,4.55564 4.55565,4.55564l36.44519,0c2.51699,0 4.55564,-2.03865 4.55564,-4.55564z" fill="#fff" stroke-width="10" stroke-linecap="round" stroke-miterlimit="1" stroke-linejoin="round" id="svg_3"/>
   <path stroke="#312f2f" d="m141.993707,73.815889l-93.390789,0c-2.516996,0 -4.555648,-2.038653 -4.555648,-4.555648l0,-47.834307c0,-2.516996 2.038653,-4.555648 4.555648,-4.555648l93.390789,0c2.516996,0 4.555648,2.038653 4.555648,4.555648l0,47.834307c0,2.516996 -2.038653,4.555648 -4.555648,4.555648z" fill="#fff" stroke-width="10" stroke-linecap="round" stroke-miterlimit="1" stroke-linejoin="round" id="svg_4"/>
   <path stroke="#990033" d="m55.43639,135.31714zm62.640164,36.445186l0,-36.445186c0,-2.516996 -2.038653,-4.555648 -4.555648,-4.555648l-36.445186,0c-2.516996,0 -4.555648,2.038653 -4.555648,4.555648l0,36.445186c0,2.516996 2.038653,4.555648 4.555648,4.555648l36.445186,0c2.516996,0 4.555648,-2.038653 4.555648,-4.555648z" fill="none" stroke-width="10" stroke-linecap="round" stroke-miterlimit="1" stroke-linejoin="round" id="svg_5"/>
   <path stroke="#312f2f" d="m55.680823,172.613389l0,-36.445186c0,-2.516996 -2.038653,-4.555648 -4.555648,-4.555648l-30.750626,0c-2.516996,0 -4.555648,2.038653 -4.555648,4.555648l0,36.445186c0,2.516996 2.038653,4.555648 4.555648,4.555648l30.750626,0c2.516996,0 4.555648,-2.038653 4.555648,-4.555648zm119.585767,0l0,-36.445186c0,-2.516996 -2.038653,-4.555648 -4.555648,-4.555648l-30.750626,0c-2.516996,0 -4.555648,2.038653 -4.555648,4.555648l0,36.445186c0,2.516996 2.038653,4.555648 4.555648,4.555648l30.750626,0c2.516996,0 4.555648,-2.038653 4.555648,-4.555648z" fill="#fff" stroke-width="10" stroke-linecap="round" stroke-miterlimit="1" stroke-linejoin="round" id="svg_6"/>
  </g>
 </g>
</svg>